<mxfile host="app.diagrams.net" modified="2023-04-13T15:59:13.393Z" agent="Mozilla/5.0 (X11; Ubuntu; Linux x86_64; rv:109.0) Gecko/20100101 Firefox/111.0" etag="LcnV284EdoRICN6qXwM_" version="21.1.7" type="device">
  <diagram name="Page-1" id="EmxoYKi0OTnsu5creDNd">
    <mxGraphModel dx="1857" dy="1025" grid="1" gridSize="10" guides="1" tooltips="1" connect="1" arrows="1" fold="1" page="1" pageScale="1" pageWidth="291" pageHeight="413" math="0" shadow="0">
      <root>
        <mxCell id="0" />
        <mxCell id="1" parent="0" />
        <mxCell id="nsdCAG6LygQzRJdwdEnA-3" value="" style="edgeStyle=orthogonalEdgeStyle;rounded=0;orthogonalLoop=1;jettySize=auto;html=1;" parent="1" source="nsdCAG6LygQzRJdwdEnA-1" target="nsdCAG6LygQzRJdwdEnA-2" edge="1">
          <mxGeometry relative="1" as="geometry" />
        </mxCell>
        <mxCell id="nsdCAG6LygQzRJdwdEnA-7" value="" style="edgeStyle=orthogonalEdgeStyle;rounded=0;orthogonalLoop=1;jettySize=auto;html=1;" parent="1" source="nsdCAG6LygQzRJdwdEnA-1" target="nsdCAG6LygQzRJdwdEnA-4" edge="1">
          <mxGeometry relative="1" as="geometry" />
        </mxCell>
        <mxCell id="nsdCAG6LygQzRJdwdEnA-1" value="BEGIN" style="strokeWidth=2;html=1;shape=mxgraph.flowchart.terminator;whiteSpace=wrap;fillColor=#d5e8d4;strokeColor=#82b366;" parent="1" vertex="1">
          <mxGeometry x="357.6" y="130" width="70" height="40" as="geometry" />
        </mxCell>
        <mxCell id="nsdCAG6LygQzRJdwdEnA-12" value="" style="edgeStyle=orthogonalEdgeStyle;rounded=0;orthogonalLoop=1;jettySize=auto;html=1;" parent="1" source="nsdCAG6LygQzRJdwdEnA-2" edge="1">
          <mxGeometry relative="1" as="geometry">
            <mxPoint x="160.10000000000002" y="250" as="targetPoint" />
          </mxGeometry>
        </mxCell>
        <mxCell id="nsdCAG6LygQzRJdwdEnA-2" value="Wireless Init" style="whiteSpace=wrap;html=1;strokeWidth=2;fillColor=#e1d5e7;strokeColor=#9673a6;" parent="1" vertex="1">
          <mxGeometry x="87.60000000000002" y="190" width="145" height="30" as="geometry" />
        </mxCell>
        <mxCell id="nsdCAG6LygQzRJdwdEnA-28" value="" style="edgeStyle=orthogonalEdgeStyle;rounded=0;orthogonalLoop=1;jettySize=auto;html=1;" parent="1" source="nsdCAG6LygQzRJdwdEnA-4" target="nsdCAG6LygQzRJdwdEnA-27" edge="1">
          <mxGeometry relative="1" as="geometry" />
        </mxCell>
        <mxCell id="nsdCAG6LygQzRJdwdEnA-36" value="" style="edgeStyle=orthogonalEdgeStyle;rounded=0;orthogonalLoop=1;jettySize=auto;html=1;" parent="1" source="nsdCAG6LygQzRJdwdEnA-4" target="nsdCAG6LygQzRJdwdEnA-33" edge="1">
          <mxGeometry relative="1" as="geometry" />
        </mxCell>
        <mxCell id="nsdCAG6LygQzRJdwdEnA-4" value="Sensor Init" style="whiteSpace=wrap;html=1;strokeWidth=2;fillColor=#f8cecc;gradientColor=#ea6b66;strokeColor=#b85450;" parent="1" vertex="1">
          <mxGeometry x="560.1" y="190" width="145" height="30" as="geometry" />
        </mxCell>
        <mxCell id="nsdCAG6LygQzRJdwdEnA-16" value="" style="edgeStyle=orthogonalEdgeStyle;rounded=0;orthogonalLoop=1;jettySize=auto;html=1;" parent="1" source="nsdCAG6LygQzRJdwdEnA-13" target="nsdCAG6LygQzRJdwdEnA-15" edge="1">
          <mxGeometry relative="1" as="geometry" />
        </mxCell>
        <mxCell id="nsdCAG6LygQzRJdwdEnA-19" style="edgeStyle=orthogonalEdgeStyle;rounded=0;orthogonalLoop=1;jettySize=auto;html=1;" parent="1" source="nsdCAG6LygQzRJdwdEnA-13" edge="1">
          <mxGeometry relative="1" as="geometry">
            <mxPoint x="82" y="200" as="targetPoint" />
            <Array as="points">
              <mxPoint x="52" y="285" />
              <mxPoint x="52" y="200" />
            </Array>
          </mxGeometry>
        </mxCell>
        <mxCell id="nsdCAG6LygQzRJdwdEnA-13" value="&lt;font style=&quot;font-size: 12px;&quot;&gt;Connected?&lt;/font&gt;" style="strokeWidth=2;html=1;shape=mxgraph.flowchart.decision;whiteSpace=wrap;fillColor=#f8cecc;strokeColor=#b85450;" parent="1" vertex="1">
          <mxGeometry x="91.98000000000002" y="250" width="136.25" height="70" as="geometry" />
        </mxCell>
        <mxCell id="nsdCAG6LygQzRJdwdEnA-21" value="" style="edgeStyle=orthogonalEdgeStyle;rounded=0;orthogonalLoop=1;jettySize=auto;html=1;" parent="1" source="nsdCAG6LygQzRJdwdEnA-15" target="nsdCAG6LygQzRJdwdEnA-20" edge="1">
          <mxGeometry relative="1" as="geometry" />
        </mxCell>
        <mxCell id="SAHvWOpld8FVqGVKE0uc-25" style="edgeStyle=orthogonalEdgeStyle;rounded=0;orthogonalLoop=1;jettySize=auto;html=1;" edge="1" parent="1" source="nsdCAG6LygQzRJdwdEnA-15">
          <mxGeometry relative="1" as="geometry">
            <mxPoint x="630" y="230" as="targetPoint" />
            <Array as="points">
              <mxPoint x="410" y="375" />
              <mxPoint x="410" y="230" />
            </Array>
          </mxGeometry>
        </mxCell>
        <mxCell id="nsdCAG6LygQzRJdwdEnA-15" value="Database Ping" style="whiteSpace=wrap;html=1;strokeWidth=2;fillColor=#f5f5f5;gradientColor=#b3b3b3;strokeColor=#666666;" parent="1" vertex="1">
          <mxGeometry x="81.98000000000002" y="360" width="156.25" height="30" as="geometry" />
        </mxCell>
        <mxCell id="nsdCAG6LygQzRJdwdEnA-26" value="" style="edgeStyle=orthogonalEdgeStyle;rounded=0;orthogonalLoop=1;jettySize=auto;html=1;" parent="1" source="nsdCAG6LygQzRJdwdEnA-20" edge="1">
          <mxGeometry relative="1" as="geometry">
            <mxPoint x="160.10000000000002" y="480" as="targetPoint" />
          </mxGeometry>
        </mxCell>
        <mxCell id="nsdCAG6LygQzRJdwdEnA-20" value="Database Refresh" style="whiteSpace=wrap;html=1;strokeWidth=2;fillColor=#dae8fc;strokeColor=#6c8ebf;" parent="1" vertex="1">
          <mxGeometry x="81.98000000000002" y="420" width="156.25" height="30" as="geometry" />
        </mxCell>
        <mxCell id="nsdCAG6LygQzRJdwdEnA-25" value="" style="edgeStyle=orthogonalEdgeStyle;rounded=0;orthogonalLoop=1;jettySize=auto;html=1;" parent="1" source="nsdCAG6LygQzRJdwdEnA-23" edge="1">
          <mxGeometry relative="1" as="geometry">
            <mxPoint x="235.11" y="510" as="targetPoint" />
          </mxGeometry>
        </mxCell>
        <mxCell id="nsdCAG6LygQzRJdwdEnA-23" value="&lt;div&gt;Collect&lt;/div&gt;&lt;div&gt;Data&lt;/div&gt;" style="shape=parallelogram;html=1;strokeWidth=2;perimeter=parallelogramPerimeter;whiteSpace=wrap;rounded=1;arcSize=12;size=0.23;fillColor=#e6d0de;gradientColor=#d5739d;strokeColor=#996185;" parent="1" vertex="1">
          <mxGeometry x="287.6" y="480" width="100" height="60" as="geometry" />
        </mxCell>
        <mxCell id="SAHvWOpld8FVqGVKE0uc-4" value="" style="edgeStyle=orthogonalEdgeStyle;rounded=0;orthogonalLoop=1;jettySize=auto;html=1;" edge="1" parent="1" source="nsdCAG6LygQzRJdwdEnA-27" target="SAHvWOpld8FVqGVKE0uc-3">
          <mxGeometry relative="1" as="geometry" />
        </mxCell>
        <mxCell id="nsdCAG6LygQzRJdwdEnA-27" value="MQ135 Preheat" style="whiteSpace=wrap;html=1;strokeWidth=2;" parent="1" vertex="1">
          <mxGeometry x="670.1" y="260" width="105" height="30" as="geometry" />
        </mxCell>
        <mxCell id="SAHvWOpld8FVqGVKE0uc-2" value="" style="edgeStyle=orthogonalEdgeStyle;rounded=0;orthogonalLoop=1;jettySize=auto;html=1;" edge="1" parent="1" source="nsdCAG6LygQzRJdwdEnA-29" target="SAHvWOpld8FVqGVKE0uc-1">
          <mxGeometry relative="1" as="geometry" />
        </mxCell>
        <mxCell id="SAHvWOpld8FVqGVKE0uc-13" style="edgeStyle=orthogonalEdgeStyle;rounded=0;orthogonalLoop=1;jettySize=auto;html=1;entryX=0.5;entryY=0;entryDx=0;entryDy=0;" edge="1" parent="1" source="nsdCAG6LygQzRJdwdEnA-29" target="SAHvWOpld8FVqGVKE0uc-10">
          <mxGeometry relative="1" as="geometry">
            <Array as="points">
              <mxPoint x="647.6" y="335" />
              <mxPoint x="647.6" y="390" />
              <mxPoint x="732.6" y="390" />
            </Array>
          </mxGeometry>
        </mxCell>
        <mxCell id="nsdCAG6LygQzRJdwdEnA-29" value="I2C Address Resolve" style="whiteSpace=wrap;html=1;strokeWidth=2;fillColor=#fff2cc;strokeColor=#d6b656;gradientColor=#ffd966;" parent="1" vertex="1">
          <mxGeometry x="490.1" y="320" width="145" height="30" as="geometry" />
        </mxCell>
        <mxCell id="nsdCAG6LygQzRJdwdEnA-35" value="" style="edgeStyle=orthogonalEdgeStyle;rounded=0;orthogonalLoop=1;jettySize=auto;html=1;" parent="1" source="nsdCAG6LygQzRJdwdEnA-33" target="nsdCAG6LygQzRJdwdEnA-29" edge="1">
          <mxGeometry relative="1" as="geometry" />
        </mxCell>
        <mxCell id="nsdCAG6LygQzRJdwdEnA-33" value="Interface begin" style="whiteSpace=wrap;html=1;strokeWidth=2;fillColor=#d5e8d4;gradientColor=#97d077;strokeColor=#82b366;" parent="1" vertex="1">
          <mxGeometry x="490.1" y="260" width="145" height="30" as="geometry" />
        </mxCell>
        <mxCell id="SAHvWOpld8FVqGVKE0uc-6" value="" style="edgeStyle=orthogonalEdgeStyle;rounded=0;orthogonalLoop=1;jettySize=auto;html=1;" edge="1" parent="1" source="SAHvWOpld8FVqGVKE0uc-1" target="SAHvWOpld8FVqGVKE0uc-5">
          <mxGeometry relative="1" as="geometry" />
        </mxCell>
        <mxCell id="SAHvWOpld8FVqGVKE0uc-1" value="MAX30102 Data Read" style="whiteSpace=wrap;html=1;strokeWidth=2;fillColor=#e6d0de;gradientColor=#d5739d;strokeColor=#996185;" vertex="1" parent="1">
          <mxGeometry x="490.1" y="410" width="145" height="30" as="geometry" />
        </mxCell>
        <mxCell id="SAHvWOpld8FVqGVKE0uc-19" style="edgeStyle=orthogonalEdgeStyle;rounded=0;orthogonalLoop=1;jettySize=auto;html=1;entryX=1;entryY=0.5;entryDx=0;entryDy=0;" edge="1" parent="1" source="SAHvWOpld8FVqGVKE0uc-3" target="SAHvWOpld8FVqGVKE0uc-20">
          <mxGeometry relative="1" as="geometry">
            <mxPoint x="832" y="590" as="targetPoint" />
            <Array as="points">
              <mxPoint x="822" y="335" />
              <mxPoint x="822" y="600" />
            </Array>
          </mxGeometry>
        </mxCell>
        <mxCell id="SAHvWOpld8FVqGVKE0uc-3" value="MQ135 Data Read" style="whiteSpace=wrap;html=1;strokeWidth=2;fillColor=#fff2cc;strokeColor=#d6b656;" vertex="1" parent="1">
          <mxGeometry x="672.6" y="315" width="100" height="40" as="geometry" />
        </mxCell>
        <mxCell id="SAHvWOpld8FVqGVKE0uc-17" style="edgeStyle=orthogonalEdgeStyle;rounded=0;orthogonalLoop=1;jettySize=auto;html=1;entryX=0;entryY=0.5;entryDx=0;entryDy=0;" edge="1" parent="1" source="SAHvWOpld8FVqGVKE0uc-5" target="nsdCAG6LygQzRJdwdEnA-29">
          <mxGeometry relative="1" as="geometry">
            <mxPoint x="462" y="430" as="targetPoint" />
            <Array as="points">
              <mxPoint x="472" y="500" />
              <mxPoint x="472" y="335" />
            </Array>
          </mxGeometry>
        </mxCell>
        <mxCell id="SAHvWOpld8FVqGVKE0uc-5" value="&lt;div&gt;Filtering &amp;amp;&lt;/div&gt;&lt;div&gt;&amp;nbsp;Averaging&lt;/div&gt;" style="rounded=1;whiteSpace=wrap;html=1;absoluteArcSize=1;arcSize=14;strokeWidth=2;fillColor=#fff2cc;strokeColor=#d6b656;gradientColor=#ffd966;" vertex="1" parent="1">
          <mxGeometry x="487.6" y="470" width="150" height="60" as="geometry" />
        </mxCell>
        <mxCell id="SAHvWOpld8FVqGVKE0uc-16" style="edgeStyle=orthogonalEdgeStyle;rounded=0;orthogonalLoop=1;jettySize=auto;html=1;entryX=0;entryY=0.5;entryDx=0;entryDy=0;" edge="1" parent="1" source="SAHvWOpld8FVqGVKE0uc-8" target="nsdCAG6LygQzRJdwdEnA-15">
          <mxGeometry relative="1" as="geometry">
            <mxPoint x="52" y="380" as="targetPoint" />
            <Array as="points">
              <mxPoint x="52" y="510" />
              <mxPoint x="52" y="375" />
            </Array>
          </mxGeometry>
        </mxCell>
        <mxCell id="SAHvWOpld8FVqGVKE0uc-8" value="Transmit Packet" style="shape=process;whiteSpace=wrap;html=1;backgroundOutline=1;fillColor=#d5e8d4;gradientColor=#97d077;strokeColor=#82b366;" vertex="1" parent="1">
          <mxGeometry x="91.98000000000002" y="480" width="137.49" height="60" as="geometry" />
        </mxCell>
        <mxCell id="SAHvWOpld8FVqGVKE0uc-9" value="" style="edgeStyle=orthogonalEdgeStyle;rounded=0;orthogonalLoop=1;jettySize=auto;html=1;" edge="1" parent="1" source="SAHvWOpld8FVqGVKE0uc-10" target="SAHvWOpld8FVqGVKE0uc-11">
          <mxGeometry relative="1" as="geometry" />
        </mxCell>
        <mxCell id="SAHvWOpld8FVqGVKE0uc-10" value="MPU6050 Data Read" style="whiteSpace=wrap;html=1;strokeWidth=2;fillColor=#d5e8d4;gradientColor=#97d077;strokeColor=#82b366;" vertex="1" parent="1">
          <mxGeometry x="660.1" y="410" width="145" height="30" as="geometry" />
        </mxCell>
        <mxCell id="SAHvWOpld8FVqGVKE0uc-18" style="edgeStyle=orthogonalEdgeStyle;rounded=0;orthogonalLoop=1;jettySize=auto;html=1;" edge="1" parent="1" source="SAHvWOpld8FVqGVKE0uc-11">
          <mxGeometry relative="1" as="geometry">
            <mxPoint x="472" y="500" as="targetPoint" />
            <Array as="points">
              <mxPoint x="733" y="550" />
              <mxPoint x="472" y="550" />
            </Array>
          </mxGeometry>
        </mxCell>
        <mxCell id="SAHvWOpld8FVqGVKE0uc-11" value="&lt;div&gt;Filtering &amp;amp;&lt;/div&gt;&lt;div&gt;&amp;nbsp;Averaging&lt;/div&gt;" style="rounded=1;whiteSpace=wrap;html=1;absoluteArcSize=1;arcSize=14;strokeWidth=2;fillColor=#f5f5f5;gradientColor=#b3b3b3;strokeColor=#666666;" vertex="1" parent="1">
          <mxGeometry x="657.6" y="470" width="150" height="60" as="geometry" />
        </mxCell>
        <mxCell id="SAHvWOpld8FVqGVKE0uc-15" value="" style="edgeStyle=orthogonalEdgeStyle;rounded=0;orthogonalLoop=1;jettySize=auto;html=1;" edge="1" parent="1" source="SAHvWOpld8FVqGVKE0uc-14" target="nsdCAG6LygQzRJdwdEnA-1">
          <mxGeometry relative="1" as="geometry" />
        </mxCell>
        <mxCell id="SAHvWOpld8FVqGVKE0uc-14" value="BOOT" style="strokeWidth=2;html=1;shape=mxgraph.flowchart.terminator;whiteSpace=wrap;fillColor=#dae8fc;strokeColor=#6c8ebf;" vertex="1" parent="1">
          <mxGeometry x="357.6" y="60" width="70" height="40" as="geometry" />
        </mxCell>
        <mxCell id="SAHvWOpld8FVqGVKE0uc-23" value="" style="edgeStyle=orthogonalEdgeStyle;rounded=0;orthogonalLoop=1;jettySize=auto;html=1;" edge="1" parent="1" source="SAHvWOpld8FVqGVKE0uc-20" target="SAHvWOpld8FVqGVKE0uc-22">
          <mxGeometry relative="1" as="geometry" />
        </mxCell>
        <mxCell id="SAHvWOpld8FVqGVKE0uc-20" value="DHT11 Data read" style="whiteSpace=wrap;html=1;strokeWidth=2;fillColor=#d5e8d4;gradientColor=#97d077;strokeColor=#82b366;" vertex="1" parent="1">
          <mxGeometry x="682.6" y="580" width="100" height="40" as="geometry" />
        </mxCell>
        <mxCell id="SAHvWOpld8FVqGVKE0uc-24" style="edgeStyle=orthogonalEdgeStyle;rounded=0;orthogonalLoop=1;jettySize=auto;html=1;entryX=1;entryY=0.5;entryDx=0;entryDy=0;" edge="1" parent="1" source="SAHvWOpld8FVqGVKE0uc-22" target="nsdCAG6LygQzRJdwdEnA-23">
          <mxGeometry relative="1" as="geometry">
            <Array as="points">
              <mxPoint x="402" y="600" />
              <mxPoint x="402" y="510" />
            </Array>
          </mxGeometry>
        </mxCell>
        <mxCell id="SAHvWOpld8FVqGVKE0uc-22" value="Create Packet" style="shape=process;whiteSpace=wrap;html=1;backgroundOutline=1;fillColor=#ffcd28;gradientColor=#ffa500;strokeColor=#d79b00;" vertex="1" parent="1">
          <mxGeometry x="512" y="570" width="137.49" height="60" as="geometry" />
        </mxCell>
      </root>
    </mxGraphModel>
  </diagram>
</mxfile>
